<?xml version="1.0" encoding="utf-8"?>
<!-- Generator: Adobe Illustrator 19.1.0, SVG Export Plug-In . SVG Version: 6.00 Build 0)  -->
<svg version="1.1" id="Layer_1" xmlns="http://www.w3.org/2000/svg" xmlns:xlink="http://www.w3.org/1999/xlink" x="0px" y="0px"
	 viewBox="-399 238 100 125" style="enable-background:new -399 238 100 125;" xml:space="preserve">
<style type="text/css">
	.st0{display:none;}
	.st1{display:inline;}
	.st2{fill:#EFEFEF;}
</style>
<g>
	<g class="st0">
		<path class="st1" d="M-713.4,492.4v14.5c0,1.1-0.5,1.9-1.2,1.9h-0.3c-0.7,0-1.2-0.9-1.2-1.9v-4.2h-1v2.9c0,0.7-0.6,1.3-1.3,1.3
			h-0.3c-0.7,0-1.3-0.6-1.3-1.3v-2.7h-1.9v0.5c0,0.5,0,0.9,0,1.3v4.1c0,0.4-0.6,0.7-1.7,1v19.5h7.7c0.6,0,1.1,0.5,1.1,1.1v1.7
			c0,0.6-0.5,1.1-1.1,1.1h-62.4c-0.6,0-1.1-0.5-1.1-1.1v-1.7c0-0.6,0.5-1.1,1.1-1.1h34.3c0,0,0,0,4.4-13.4
			c2.9-9.6,0.1-12.9-17.8-12.5c-10.2,0-12.9,7.4-12.9,9.5v3c0,0.7-0.6,1.3-1.3,1.3h-1.3v3.8h-0.2v1.5h-0.4V521h-0.2h-1.9v-0.9h1.9
			V517l0,0h-1.3c-0.7,0-1.3-0.6-1.3-1.3v-22.4c0-0.7,0.6-1.3,1.3-1.3h3.5c0.7,0,19.9,7,33.7-0.4c0,0-0.1-0.7,0.5-0.7h5.1h3.6h0.8
			l0,0h0.1c4.1,0,5.7,0,5.7,1.4v4.3h1.1h0.7v-2.8c0-0.7,0.6-1.3,1.3-1.3h0.3c0.7,0,1.3,0.6,1.3,1.3v2.8h1v-4.2
			c0-1.1,0.5-1.9,1.2-1.9h0.3C-713.9,490.4-713.4,491.3-713.4,492.4z"/>
	</g>
	<g class="st0">
		<path class="st1" d="M-718.5,529.7v-0.9c-0.2-7.5-3.1-10-3.1-10h-18.1c0,0-0.7-0.6-0.9-2.5v-10.8c0,0,0.2-10.5-9.2-8.5
			c0,0-6,1.1-8.9,0.9c-0.1-0.9-0.6-1.6-1.3-2.1V495c0-0.4-0.4-0.4-0.4-0.4v-1c0.6,0,1.2-0.5,1.2-1.2c0-0.6-0.5-1.2-1.2-1.2h-0.4
			h-0.4c-0.1,0-0.2,0-0.3,0c0.2-0.1,0.3-0.2,0.4-0.3c2.6-0.3,12.4-1.8,12.4-1.8c1-0.1,1.7-1.1,1.6-2.1s-1.1-1.7-2.1-1.6
			c-0.1,0-0.1,0-0.2,0l0,0l-11.6,2.9c-0.3-0.4-0.8-0.6-1.3-0.6c-1,0-1.8,0.8-1.8,1.8c0,0.1,0,0.2,0,0.2v4.8h-1.1
			c-0.5,0-0.4,0.5-0.4,0.5v0.7c-0.8,0.6-1.3,1.5-1.3,2.6v12.3c0,1.6,1.1,2.9,2.7,3.1v1.4h-0.8v-0.3c0-0.2-0.2-0.3-0.4-0.3
			c-0.2,0-0.4,0.1-0.4,0.3v1.5c0,0.2,0.2,0.3,0.4,0.3c0.2,0,0.4-0.1,0.4-0.3V516h0.8v1.1l0.5,0.6h0.2v1h-8.3c0,0-3,2.5-3.1,10v0.9
			l-1.7,1.7v4.2h59.8v-4.2L-718.5,529.7z M-763.1,489.5c0-0.4,0.3-0.8,0.8-0.8c0.4,0,0.8,0.3,0.8,0.8c0,0.4-0.3,0.8-0.8,0.8
			C-762.7,490.2-763.1,489.9-763.1,489.5z M-750.4,516.3c0,0-0.2,2.4-1.5,2.4h-10.4v-1h0.2l0.5-0.6V516h0.8v0.3
			c0,0.2,0.2,0.3,0.4,0.3c0.2,0,0.4-0.1,0.4-0.3v-1.5c0-0.2-0.2-0.3-0.4-0.3c-0.2,0-0.4,0.1-0.4,0.3v0.3h-0.8v-1.4
			c1.6-0.1,2.9-1.5,2.9-3.1v-5h6.9c0,0,1.6,0,1.6,2.1L-750.4,516.3z"/>
	</g>
	<g class="st0">
		<path class="st1" d="M-714.9,516.5v1.7c0,0.1-0.1,0.2-0.2,0.3c-0.1,0-5.6,2.9-12.7,3.7c-2.5,0.3-5,0.4-7.4,0.4
			c-1.2,0-2.4,0-3.5-0.1c-3.1-0.2-5.9-0.6-8.1-1.2c-4.3-1.2-7.2-1.7-8-1.8c0,0-2.8-0.5-6.4-0.5l-1,3c0,0.1-0.2,0.2-0.3,0.2h-15.1
			c-0.2,0-0.3-0.1-0.3-0.3v-6.1c0-0.1,0.1-0.3,0.2-0.3c0.1,0,0.3,0,0.4,0.1l0,0c0,0,0.8,1.2,2.9,1.3c2,0.1,8.9-0.1,8.9-0.1
			c1.6,0,7,0,10.9,0.6c0.8,0.1,3.9,0.6,8.4,1.9c2.9,0.8,6.7,1.3,11,1.3c2.4,0,4.8-0.1,7.2-0.4c6.2-0.7,11.8-3.6,12.4-3.9l0.2-0.1
			c0.1,0,0.2,0,0.3,0C-715,516.3-714.9,516.4-714.9,516.5z M-773.5,516.2c0,0,3.3,0.1,8.5-0.1c0,0,2.1,0,5.1,0.1
			c1.7,0.1,3.4,0.2,4.9,0.5c2.3,0.3,4.6,0.8,6.8,1.4c0.6,0.2,1.2,0.3,1.9,0.5c2.9,0.8,6.7,1.3,10.9,1.3c2.3-0.1,4.7-0.2,7-0.5
			c6.9-0.8,11.7-3.4,11.7-3.4c0.7-0.3,0.6-1.2,0.6-1.2c-0.1-2-1.4-3-1.4-3c-0.6-0.7-3.6-0.9-4.9-0.7c-4,0.5-8.8-0.8-8.8-0.8
			c-2.2-0.5-6.1-2.9-8.8-4.7l-2.1,2.1c-0.1,0.1-0.1,0.1-0.2,0.1s-0.2,0-0.2-0.1c-0.1-0.1-0.1-0.3,0-0.5l2-2
			c-1.3-0.9-2.3-1.6-2.3-1.6l0,0l-2.4,2.4c-0.1,0.1-0.1,0.1-0.2,0.1c-0.1,0-0.2,0-0.2-0.1c-0.1-0.1-0.1-0.3,0-0.5l2.3-2.3
			c-0.8-0.6-1.5-1.1-2.3-1.5l-2.6,2.6c-0.1,0.1-0.1,0.1-0.2,0.1s-0.2,0-0.2-0.1c-0.1-0.1-0.1-0.3,0-0.5l2.5-2.5
			c-4.7-2.8-8.2-3.2-8.2-3.2c-0.7-0.2-0.8,0.3-0.8,0.3v0.8c-1.5,0.6-5.2,1.1-9,1.5c-4.9,0.5-9.8-0.9-11.6-1.2
			c-0.5-0.1-0.7,0.4-0.7,0.4l-0.5,1.1c0,0-2.3,6-1.4,10.2c0,0,0,0.6,0.2,1.5C-777.9,513.8-777.3,516.4-773.5,516.2z"/>
	</g>
	<g class="st0">
		<path class="st1" d="M-715.1,519.7v1.7c0,0.1-0.1,0.2-0.2,0.3c-0.1,0-5.5,2.9-12.6,3.7c-2.5,0.3-4.9,0.4-7.4,0.4
			c-1.2,0-2.4,0-3.5-0.1c-3-0.2-5.8-0.6-8-1.2c-4.3-1.2-7.2-1.7-7.9-1.8c0,0-2.8-0.5-6.3-0.5l-1,2.9c0,0.1-0.2,0.2-0.3,0.2h-15
			c-0.2,0-0.3-0.1-0.3-0.3v-6c0-0.1,0.1-0.3,0.2-0.3s0.3,0,0.4,0.1l0,0c0,0,0.8,1.2,2.9,1.3c2,0.1,8.9-0.1,8.9-0.1
			c1.6,0,7,0,10.9,0.6c0.8,0.1,3.8,0.6,8.3,1.9c2.9,0.8,6.7,1.3,10.9,1.3c2.4,0,4.8-0.1,7.2-0.4c6.2-0.7,11.7-3.5,12.4-3.9l0.2-0.1
			c0.1,0,0.2,0,0.3,0C-715.2,519.5-715.1,519.6-715.1,519.7z M-773.3,519.5c0,0,3.3,0.1,8.4-0.1c0,0,2.1,0,5.1,0.1
			c1.6,0.1,3.4,0.2,4.9,0.5c2.3,0.3,4.6,0.8,6.8,1.4c0.6,0.2,1.2,0.3,1.9,0.5c2.9,0.8,6.6,1.2,10.9,1.2c2.3-0.1,4.7-0.2,6.9-0.5
			c6.8-0.8,11.7-3.3,11.7-3.3c0.7-0.3,0.6-1.2,0.6-1.2c-0.1-2-1.4-2.9-1.4-2.9c-0.6-0.7-3.5-0.9-4.9-0.7c-3.9,0.5-8.8-0.8-8.8-0.8
			c-2.2-0.5-6.1-2.9-8.8-4.7l0,0c0,0,0,0-0.1,0c-0.4-0.3-1-0.8-1.6-1.4l-2.2,1.3c-0.1,0-0.2,0.1-0.2,0c-0.1,0-0.1-0.1-0.2-0.1
			c-0.1-0.2,0-0.4,0.1-0.4l2.1-1.2c-0.6-0.6-1.2-1.3-1.9-2.1l-2.4,1.4c-0.1,0-0.2,0.1-0.2,0c-0.1,0-0.1-0.1-0.2-0.1
			c-0.1-0.2,0-0.3,0.1-0.4l2.3-1.3c-0.6-0.7-1.2-1.4-1.7-2.1l-2.7,1.5c-0.1,0-0.2,0.1-0.2,0c-0.1,0-0.1-0.1-0.2-0.2
			c-0.1-0.2,0-0.3,0.1-0.4l2.6-1.5c-2.4-3-4.5-5.9-4.9-6.4c-0.6-1-4.3-0.2-5-0.1l0,0c0,0-4.6,1.4-8.3,1.4c-5,0-8.8,0-10.6-0.3
			c-0.5-0.1-0.9,0.4-0.9,0.4l-0.3,1.1c0,0-2.4,12.5-1.6,16.7c0,0,0,0.6,0.2,1.5C-777.7,517-777.1,519.6-773.3,519.5z"/>
	</g>
	<g class="st0">
		<path class="st1" d="M-712.5,515.4c-0.3-2.1-1.8-3-1.8-3c-0.7-0.7-3.9-0.6-5.3-0.4c-4.2,0.9-9.5-0.2-9.5-0.2
			c-3.9-0.5-12.6-7.6-12.6-7.6c-6.8-5-9.8-6-9.8-6c-0.7-0.2-0.8,0.4-0.8,0.4l-1.6,13.7l0.2,0.1c0.7,0.2,1.3,0.6,1.7,1.2
			c0,0,0,0,0,0.1c0,0,0,0,0,0.1c0.3,0.4,0.4,0.9,0.5,1.5c0,0.1,0,0.2,0,0.2c0,1.5-1,2.8-2.3,3.1l-0.4,1.7c0,0.1,0,0.2,0,0.3
			c0.5,0,3.8,0.3,8.9,1.3c5.5,1.1,13.1,0.8,20-0.5c7.3-1.4,12.3-4.5,12.3-4.5C-712.4,516.3-712.5,515.4-712.5,515.4z M-751.2,506
			c-0.4,0-0.6-0.3-0.6-0.6c0-0.4,0.3-0.6,0.6-0.6c0.4,0,0.6,0.3,0.6,0.6C-750.5,505.8-750.8,506-751.2,506z M-749.9,516.5
			c-0.4,0-0.6-0.3-0.6-0.6c0-0.4,0.3-0.6,0.6-0.6c0.4,0,0.6,0.3,0.6,0.6C-749.3,516.2-749.5,516.5-749.9,516.5z M-734.5,520.5
			c-0.4,0-0.6-0.3-0.6-0.6c0-0.4,0.3-0.6,0.6-0.6s0.6,0.3,0.6,0.6C-733.8,520.2-734.1,520.5-734.5,520.5z M-756.6,513
			c-0.2,0-0.3,0-0.5,0.1l-0.1-0.4l-5.5-7.7l-1.5-1.8l-1.8,0.5c-4.3,1.5-10.5,1.6-12.4,1.6c-0.6,0-0.7,0.5-0.7,0.5l-0.3,1.2
			c0,0-1.6,6.7-0.1,11c0,0,0.1,0.6,0.4,1.6c0.3,0.9,1.3,3.6,5.3,2.9c0,0,3.5-0.4,9-1.2c0,0,4.8-0.7,8.3-0.7l0.4-2.6h0.2l0,0
			c1.1-0.3,1.9-1.3,1.9-2.5C-754,514.1-755.2,513-756.6,513z M-765.2,506.3c-0.4,0-0.7-0.3-0.7-0.6c0-0.4,0.3-0.7,0.6-0.7
			c0.4,0,0.7,0.3,0.7,0.6C-764.5,506-764.8,506.3-765.2,506.3z M-759.1,516.6c-0.4,0-0.7-0.3-0.7-0.6c0-0.4,0.3-0.7,0.6-0.7
			c0.4,0,0.7,0.3,0.7,0.6C-758.4,516.3-758.7,516.6-759.1,516.6z"/>
	</g>
	<g class="st0">
		<path class="st1" d="M-713.1,516.7c0,0-5,3.2-12.3,4.5c-6.9,1.3-14.5,1.7-20,0.5c-5.1-1-8.4-1.3-8.9-1.3c0-0.1,0-0.2,0-0.3
			l0.4-1.7c1.3-0.3,2.3-1.6,2.3-3.1c0-0.1,0-0.2,0-0.2c0-0.5-0.2-1.1-0.5-1.5c0,0,0,0,0-0.1c0,0,0,0,0-0.1c-0.4-0.6-1-1-1.7-1.2
			l-0.2-0.1l1.6-13.7c0,0,0.1-0.6,0.8-0.4c0,0,3,1,9.8,6c0,0,8.7,7.1,12.6,7.6c0,0,5.3,1,9.5,0.2c1.4-0.3,4.7-0.4,5.3,0.4
			c0,0,1.5,1,1.8,3C-712.5,515.4-712.4,516.3-713.1,516.7z M-756.6,513c-0.2,0-0.3,0-0.5,0.1l-0.1-0.4l-5.5-7.7l-1.5-1.8l-1.8,0.5
			c-4.3,1.5-10.5,1.6-12.4,1.6c-0.6,0-0.7,0.5-0.7,0.5l-0.3,1.2c0,0-1.6,6.7-0.1,11c0,0,0.1,0.6,0.4,1.6c0.3,0.9,1.3,3.6,5.3,2.9
			c0,0,3.5-0.4,9-1.2c0,0,4.8-0.7,8.3-0.7l0.6-2.6h0.3l0,0c0.7-0.3,1.8-1.3,1.8-2.5C-753.9,514.1-755.2,513-756.6,513z"/>
	</g>
	<g class="st0">
		<path class="st1" d="M-720.3,514.7c-0.7-5.4-6.2-4.8-6.2-4.8s-2.7,0-5.5,1.8c-2.8,1.9-7.3,5.8-12.2,2.3c0,0-0.9-0.6-0.7-2.1
			c0.2-1.2,3.8-4.3,10.5-2.8c0,0,6.9,2.2,10.1-0.6l7.6-8.2c0,0,1.2-1.1,2-1.1c0.1,0,0.3,0,0.4,0.1c-0.1,0-0.1-0.1-0.1-0.1
			s0.6,0.3,0.8-0.2c0.2-0.6-1.2-1.9-3.6,0.2l-6.6,6.6c0,0-2.2,3-6.1,2.2c-3.6-0.8-10.6-3.8-16,1.9v-0.1l-23.3-4.7
			c0,0-7.5-1.3-10.7,1l28.2,6.3l-27.7,4.5c3,2.6,10.6,2,10.6,2l22.6-3.6c0.3,0.3,0.6,0.5,0.6,0.5c1,1.3,4.9,2.4,4.9,2.4
			c5.3,7.2,14,3.9,14,3.9S-719.6,520.1-720.3,514.7z M-748.9,513.6c-0.5-0.4-0.5-1.1-0.1-1.5c0.4-0.5,1.1-0.5,1.5-0.1
			c0.5,0.4,0.5,1.1,0.1,1.5C-747.8,513.9-748.5,514-748.9,513.6z M-725.4,519.9c-7.6,3.2-11.7-0.3-11.7-0.3
			c-2.5-1.7-2.1-2.4-0.7-2.6c1.4-0.3,3.7-1.2,5.6-2.7s2.9-1.9,2.9-1.9c5.3-2.4,6.8,1.5,6.8,1.5C-721,517.5-725.4,519.9-725.4,519.9z
			"/>
	</g>
	<g class="st0">
		<path class="st1" d="M-720.6,515.2c-0.4-5.2-5.8-4.9-5.8-4.9s-2.5-0.1-5.3,1.5c-2.7,1.7-7.2,5.2-11.7,1.7c0,0-0.7-0.8-0.6-2
			c0.2-1.2,3.8-4,10.1-2.2c0,0,6.5,2.3,9.6-0.2l8.6-8.3c0,0,1.2-1,2-1c0.1,0,0.2,0,0.3,0.1c-0.1,0-0.1-0.1-0.1-0.1s0.6,0.4,0.7-0.2
			c0.2-0.6-1-1.9-3.4,0.1l-7.6,6.8c0,0-2.3,2.8-5.9,1.9c-3.4-0.9-9.8-4-15.1,1v-0.1l-27.1-0.9c0,0-7.3,0.1-9.9,2.8l22.2,1l-21.8,0.4
			c2.5,2.8,9.8,3.2,9.8,3.2l27-0.2c1.2,1.1,4.3,2.1,4.3,2.1c4.8,7.1,13.2,4.3,13.2,4.3S-720.1,520.3-720.6,515.2z M-747.2,513.3
			c-0.5-0.4-0.5-1.1-0.1-1.5c0.4-0.5,1.1-0.5,1.5-0.1c0.5,0.4,0.5,1.1,0.1,1.5C-746,513.6-746.7,513.7-747.2,513.3z M-725.6,519.9
			c-7.3,2.8-11.6-1.1-11.6-1.1c-1.2-0.7-1.5-2.1-0.1-2.2c1.4-0.2,3.6-1,5.5-2.4c1.9-1.3,2.9-1.7,2.9-1.7c5.1-2.1,6.4,1.7,6.4,1.7
			C-721.3,517.8-725.6,519.9-725.6,519.9z"/>
	</g>
	<g class="st0">
		<path class="st1" d="M-727.4,504.5v10.3c0,0-2-1.1-4.6-1.2v-1.7h-1v1.8c-0.9,0.1-1.9,0.3-2.9,0.7v-2.9h-1v3.4
			c-1.3,0.6-2.3,0.7-3,0.7c0.1-0.2,0.1-0.4,0.1-0.6v-9c0-0.5-0.2-0.9-0.4-1.3c1,0.1,2.3,0,3.7-0.5
			C-733,502.8-728.1,503.6-727.4,504.5z M-740.8,505.5c0.1,0.2,0.1,0.3,0.1,0.5v8.8c0,0.2,0,0.3-0.1,0.4c-0.3,0.9-1.7,1.5-3.5,2
			v-2.4h-1v2.6c-1.1,0.2-2.3,0.4-3.5,0.5V514h-1v4c-1.5,0.1-2.9,0.2-4.2,0.2v-2.6h-1v2.6c-1.2,0-2.7-0.1-4.2-0.2v-4.1h-1v4
			c-1.4-0.1-2.8-0.3-4.1-0.6v-2.6h-1v2.4c-2.2-0.5-3.7-1.3-3.7-2.5V506c0-2.8,9.2-3.5,14-3.5c3.7,0,9.8,0.4,12.5,1.8l0,0l0,0
			c0.2,0.1,0.4,0.2,0.6,0.3l0,0c0.2,0.1,0.3,0.2,0.4,0.4c0,0,0,0.1,0.1,0.1C-740.9,505.3-740.9,505.4-740.8,505.5z M-758.3,506
			c0,0.3,1.6,0.5,3.6,0.5s3.6-0.2,3.6-0.5s-1.6-0.5-3.6-0.5C-756.7,505.5-758.3,505.7-758.3,506z M-742.1,507.7l-0.3-0.6
			c-2,1-6.9,1.8-12.3,1.8c-5.4,0-10.1-0.7-12.2-1.7l-0.3,0.6c2.1,1.1,7,1.8,12.5,1.8C-749.2,509.5-744.2,508.8-742.1,507.7z
			 M-726.5,504.9v10.3l1.9,1.2v-10.3L-726.5,504.9z"/>
	</g>
	<g class="st0">
		<path class="st1" d="M-755.6,523.6l17.1-14.9v7.7l-12.7,11h-3.3c-0.6,0-1.1-0.5-1.1-1.1V523.6L-755.6,523.6z M-738.5,494.7
			c0-0.6-0.5-1.1-1.1-1.1h-1.1l-14.9,12.9v7.1l17.1-14.9V494.7z M-739.6,527.4c0.6,0,1.1-0.5,1.1-1.1v-1.7l-3.2,2.8L-739.6,527.4
			L-739.6,527.4z M-750.2,529.8h5.8v-2.4h1.4l4.5-3.9v-6l-11.8,10.2C-750.2,527.7-750.2,529.8-750.2,529.8z M-754.5,493.6
			c-0.6,0-1.1,0.5-1.1,1.1v2.3l3.9-3.4H-754.5z M-744.4,493.6V491h-5.8v2.6h-0.2l-5.2,4.5v7.4l13.6-11.8h-2.4V493.6z M-729.3,498.6
			c-0.3,0.2-0.5,0.4-0.8,0.6l-0.7,0.6l-7.7,6.2v1.5l-17.1,14.9V520l-11.3,9.2l11.3-10.9v-3.4l17.1-14.9v1.8l4.7-4.5l1.7-1.5l0.1-0.1
			l0.1-0.1l0.9-0.8l0.5-0.4c0,0,2.3-1.9,3.5-0.8l0.1,0.1c0,0,0,0,0.1,0C-726,494.5-727.2,496.7-729.3,498.6z M-727.9,494.7
			c-0.3-0.4-1.4,0.1-2.5,1c-1,0.9-1.6,1.9-1.3,2.3c0.3,0.4,1.4-0.1,2.5-1C-728.1,496.1-727.6,495.1-727.9,494.7z"/>
	</g>
	<g class="st0">
		<g class="st1">
			<path d="M-714.2,506.4c-2.9-4.5-9.3-5.1-9.3-5.1c-7-0.5-9.7,4.3-9.7,4.3h-3.7c0,0-2.1,0.2-6.1-1.6c-5-2.1-13.2-8.3-25.1-9.4
				c0,0-4.1-0.7-10.8,0.7c0,0-1.5,0.9,0,1.2c10.6-1.1,16.9,1.2,20.2,2.3c3.3,1.1,9.4,5.1,9.4,5.1c3.1,2.1,7.3,3.6,7.3,3.6l4.1,1.7
				l0.2,0.1c-0.8,0.8-2.8,1.8-2.8,1.8c-3.7,1.5-13.9,8-13.9,8l-3,1.5c-6.7,3.3-10.5,3.7-10.5,3.7c-1.8,0.7-9.5,0.4-9.5,0.4
				c-1.5,0.8,0,1.6,0,1.6c6.1,0.5,9.7,0,9.7,0c7.7-0.8,20.2-7.8,20.2-7.8s5.1-3.2,9.1-4.5c2.8-0.9,3.9-1.8,4.4-2.3h4.6l-0.9,5.6
				l0.2,0.3c0,0,5.8,0,6.1,0c0.1,0,0.2-0.2,0.2-0.2l-0.9-5.9h1c0,0,3.9,0,7.8,3.9c0,0,0.6,0.8,1.2,0.4c0.6-0.4-2.1-6-8.9-7.1
				l-4.5-0.4l-1.3-1c0,0,0.9-0.7,1.1-0.8c1.7-1.2,4.1-1.3,4.1-1.3s4.3-0.6,7.5,1.2l2.1,1.3C-713.1,508.5-714.2,506.4-714.2,506.4z
				 M-733.2,505.5C-733.1,505.5-732.8,505.3-733.2,505.5L-733.2,505.5z M-732.7,509.8c-0.6,0-1.2-0.5-1.2-1.2s0.5-1.2,1.2-1.2
				c0.6,0,1.1,0.5,1.1,1.2S-732.1,509.8-732.7,509.8z"/>
		</g>
	</g>
	<g class="st0">
		<g class="st1">
			<path d="M-719.8,534c0,0.2-0.1,0.3-0.2,0.4l-3.6,3.6c-0.1,0.1-0.3,0.2-0.4,0.2c-0.2,0-0.3,0-0.4-0.2l-35.6-39.3l-5.5,6
				c-1.5,1.6-1.2,3.8-1.2,3.8l0.1,0.6c0,0.1,0,0.3,0,0.4l-0.5,1.1c-0.1,0.1-0.2,0.2-0.3,0.3c-0.1,0-0.3,0-0.4,0l-5.6-3.2
				c-0.1-0.1-0.2-0.2-0.3-0.3c0-0.1,0-0.3,0-0.4l1-1.3c0.1-0.1,0.2-0.2,0.3-0.3l0.7-0.2c0,0,2.5-0.6,4.3-5.6c0,0,1.5-4.5,3.3-6.6
				c1.8-2,4.5-3.2,8.8-3.8c4.4-0.6,8.2-2.4,8.2-2.4s2.5-1.1,4.6-3.8l0.6-0.2l0.5,0.5l-0.3,1.8l-2.5,2.3c0,0-3.9,3.3-9.6,5.8
				c-1.6,0.7-3,1.9-3.1,1.9l36.7,38.4C-719.9,533.7-719.8,533.8-719.8,534z"/>
		</g>
	</g>
	<g class="st0">
		<path class="st1" d="M-724.6,522.1c0.4,0.5,0.4,0.9,0.4,0.9v4.3h-8.3c0,0-1.5,0-2.1-1.1c0,0-1.5-2.5-8.3-2.3h-0.6
			c-6.8-0.2-8.3,2.3-8.3,2.3c-0.6,1.1-2.1,1.1-2.1,1.1h-8.3V523c0,0,0-0.4,0.4-0.9l3.1-3.6c0.1-0.2,0.5-0.3,0.5-0.3l1.6-0.5h26.3
			l2.1,0.5c0,0,0.4,0.1,0.5,0.3L-724.6,522.1z M-755.4,493.5v1.1c0,0-0.5,0.7-2.6,0.7h-1.6v0.9h-12.3c0,0-1.8-0.1-7.7-0.4l-0.9-0.1
			h-0.1c-0.3,0-0.6,0.2-0.6,0.6c0,0.1,0,0.2,0.1,0.3l0.1,0.1c0,0,6.6,10.9,21.1,11h3.1c2.9,0,5.4,2.5,5.4,5.3c0,1.6-0.9,3-2.2,3.7
			h20.5c-1.4-1-2.4-2.6-2.4-4.5c0-3.8,3.5-10.6,15.8-12.7l5.1-1.1c0,0,1.8-0.2,1.8-1.4v-0.9l0.5-0.5v-2
			C-712.2,493.5-755.4,493.5-755.4,493.5z"/>
	</g>
	<g class="st0">
		<g class="st1">
			<path d="M-734.2,513.6c0-0.2,0-0.3,0-0.5c0.3-3,3.1-4.3,6.2-4.3v-14.2h-33.6v15.2h2.8c3.3,0,6.3,1.5,6.3,4.8c0,1.8-1,3.4-2.5,4.2
				h23.5C-733.2,517.6-734.2,515.7-734.2,513.6z"/>
			<path d="M-762.1,496.5h-4.5v1.1h-7.9c0,0-6.7,0-6.8,0c-0.4,0-0.6,0.3-0.6,0.6c0,0.1,0,0.3,0.1,0.4c0,0,3.2,9.3,19.7,9.6V496.5
				L-762.1,496.5z"/>
			<polygon points="-725.5,494.5 -727.5,494.5 -727.5,508.7 -726.1,508.7 -719.7,503.2 -715.5,503.2 -715.5,498.9 			"/>
			<path d="M-729.6,519.3h-26.8l-5.1,3.4c-0.5,0.6-0.4,1-0.4,1v3.5h7.7l1.2-1.3h20.1l1.2,1.3h7.7v-3.5c0,0,0-0.5-0.4-1L-729.6,519.3
				z"/>
		</g>
	</g>
</g>
<path class="st2" d="M-355,247v26.8l7.4,5.1v46.7h-12.3l13.2,19.4l13.2-19.4h-12.3v-46.7l7.4-5.1V247l-8.4,5L-355,247z
	 M-340.2,272.8l-5.6,3.8v-18h-1.8v18l-5.6-3.8v-22.6l6.5,3.9l6.6-3.9L-340.2,272.8z M-346.7,341.7l-9.8-14.3h19.5L-346.7,341.7z"/>
</svg>
